<?xml version="1.0" encoding="utf-8"?>
<!-- Generator: Adobe Illustrator 24.0.1, SVG Export Plug-In . SVG Version: 6.00 Build 0)  -->
<svg version="1.1" id="Layer_1" xmlns="http://www.w3.org/2000/svg" xmlns:xlink="http://www.w3.org/1999/xlink" x="0px" y="0px"
	 viewBox="0 0 435.7 209.8" style="enable-background:new 0 0 435.7 209.8;" xml:space="preserve">
<style type="text/css">
	.st0{fill:#C9C9C9;}
	.st1{fill:#757DE8;}
	.st2{fill:#CED8D7;}
	.st3{fill:#3F51B5;}
	.st4{fill:#BAD8D3;}
	.st5{fill:#A7C6C0;}
	.st6{fill:#FFFFFF;}
	.st7{fill:#CAE5E1;}
	.st8{fill:#DAF2F0;}
	.st9{fill:#6E868E;}
	.st10{fill:#64847E;}
	.st11{fill:#E4F4F2;}
	.st12{fill:#639296;}
	.st13{fill:#002984;}
	.st14{fill:#5FE6ED;}
	.st15{fill:#89CCC9;}
	.st16{fill:#B8D3CE;}
</style>
<title>404</title>
<g id="Layer_2_1_">
	<g id="_ÎÓÈ_1">
		<ellipse class="st0" cx="358.3" cy="204.8" rx="77.4" ry="5"/>
		<ellipse class="st0" cx="100.9" cy="204.8" rx="63.9" ry="5"/>
		<polygon class="st1" points="294.4,22.5 215,108.3 220.7,128.1 285.5,142.2 		"/>
		<rect x="353.3" y="13.8" class="st2" width="6" height="191"/>
		<rect x="269.5" y="22.5" class="st3" width="166.2" height="119.6"/>
		<path class="st4" d="M62,204.6h23.1c0,0-0.2-8.5-8.9-9.7c-2.6-0.4-5.3-0.5-7.9-0.3l2.9-31.4L61,159.8l2.1,35.7
			c-0.4,0.1-0.6,0.2-0.6,0.2L62,204.6z"/>
		<path class="st5" d="M65.8,201.9l-0.1-6.3c0,0,0.2-0.1,0.6-0.2l-2.1-34.6l-3.2-1.1l2.1,35.7c-0.4,0.1-0.6,0.2-0.6,0.2l-0.5,8.9
			h23.1v-0.4L65.8,201.9z"/>
		<path class="st6" d="M71.5,194.5L71.5,194.5c0.3,0.1,0.6,0.1,1,0L71.5,194.5z"/>
		<path class="st4" d="M128.3,204.6h23.1c0,0-0.2-8.5-8.9-9.7c-2.6-0.4-5.3-0.5-7.9-0.3l2.9-31.4l-10.2-3.4l2.1,35.7
			c-0.4,0.1-0.6,0.2-0.6,0.2L128.3,204.6z"/>
		<path class="st5" d="M132.1,201.9l-0.1-6.3c0,0,0.2-0.1,0.6-0.2l-2.1-34.6l-3.2-1.1l2.1,35.7c-0.4,0.1-0.6,0.2-0.6,0.2l-0.5,8.9
			h23.1c0-0.1,0-0.2,0-0.4L132.1,201.9z"/>
		<path class="st6" d="M137.7,194.5L137.7,194.5c0.3,0.1,0.6,0.1,0.9,0L137.7,194.5z"/>
		<path class="st7" d="M53.7,105.6c0,10.2,0.3,36.6,0.4,49.8c0,4.3,3.5,7.7,7.8,7.7h74.3c4.3,0,7.8-3.5,7.8-7.8l0,0V94.2
			c0,0,2-14.8-21.5-14.8s-41.1,1.2-53.9,3.4S53.7,96.3,53.7,105.6z"/>
		<path class="st8" d="M65.7,155.5c-0.1-13.2-0.4-39.7-0.4-49.8c0-9.3,2.1-20.7,14.9-22.9c11.1-1.9,25.8-3.1,44.8-3.3
			c-0.8,0-1.7-0.1-2.6-0.1c-23.5,0-41.1,1.2-53.9,3.4s-14.9,13.6-14.9,22.9c0,10.2,0.3,36.6,0.4,49.8c0,4.3,3.5,7.7,7.8,7.7h11.7
			C69.3,163.2,65.8,159.7,65.7,155.5z"/>
		<path class="st7" d="M171.5,115c0,0-7.6-15.8-30.8-18.8l-18.2-16.8c23.4-0.3,45,12.4,56,33L171.5,115z"/>
		<path class="st7" d="M169.6,123.2c0,0-2.8-9.9,6.4-11.6c12.1-2.2,15.3,7.6,15.3,7.6L169.6,123.2z"/>
		<path class="st9" d="M160.8,133.6l42.9-7.9l-1.9-10.3l-42.9,7.9c-2.8,0.5-4.7,3.2-4.2,6.1c0,0,0,0,0,0l0,0
			C155.3,132.2,158,134.1,160.8,133.6z"/>
		<path class="st10" d="M50,153.8L8.2,139.3c-3.2-1.2-6.8,0.5-7.9,3.7s0.5,6.8,3.7,7.9c0.2,0.1,0.4,0.1,0.6,0.2l42.6,11.7
			c0,8.9,7.2,16.1,16,16.2c2.8,0,5.5-0.7,7.9-2l1-3.1l-10.6-3.3l-2.3-9.1l6.9-5.9l10.6,3.3l1-3.1c-4-8-13.6-11.2-21.6-7.3
			C53.7,149.6,51.6,151.5,50,153.8z M4.5,144.4c0.4-1,1.5-1.6,2.5-1.3s1.6,1.5,1.3,2.5c-0.3,1-1.4,1.6-2.5,1.3
			C4.8,146.7,4.2,145.6,4.5,144.4C4.5,144.5,4.5,144.5,4.5,144.4z"/>
		<path class="st7" d="M67.2,76.8h59.7c12.8,0,17.1-6.3,17.1-24.3s-10.2-42.1-42.2-42.1s-44,19.3-46.7,37S54.6,76.8,67.2,76.8z"/>
		<path class="st8" d="M65.6,48.4c2.5-17.2,15.5-31.6,46.5-31.6c5.1,0,10.1,0.2,15.2,0.8c-6.3-4.4-14.7-7.2-25.5-7.2
			c-32,0-44,19.3-46.6,37s-0.5,29.3,12,29.3h10.2C65.1,76.8,63.1,65.6,65.6,48.4z"/>
		<path class="st11" d="M139,52.5c0-6.3-1.2-12.5-3.6-18.4c-2-4.8-6.8-8-12-8H94.4c-16.1,0-28.3,17.1-24.3,30.9s20.6,11.7,34.6,11.7
			h23.6c5.4,0,9.8-4.1,10.3-9.4C138.9,57.2,139,55,139,52.5z"/>
		<path class="st11" d="M139,52.5c0-6.3-1.2-12.5-3.6-18.4c-2-4.8-6.8-8-12-8H94.4c-16.1,0-28.3,17.1-24.3,30.9s20.6,11.7,34.6,11.7
			h23.6c5.4,0,9.8-4.1,10.3-9.4C138.9,57.2,139,55,139,52.5z"/>
		<path class="st12" d="M100,46.5c0,1.8-1.5,3.3-3.3,3.3c-1.8,0-3.3-1.5-3.3-3.3c0-1.8,1.5-3.3,3.3-3.3S100,44.7,100,46.5L100,46.5z
			"/>
		<path class="st12" d="M132.1,46.5c0,1.8-1.5,3.3-3.3,3.3c-1.8,0-3.3-1.5-3.3-3.3s1.5-3.3,3.3-3.3c0,0,0,0,0,0
			C130.6,43.2,132.1,44.7,132.1,46.5C132.1,46.5,132.1,46.5,132.1,46.5z"/>
		<path class="st9" d="M211.7,119c1.2,6.6-0.8,12.4-4.5,13.1s-7.6-4.1-8.8-10.7s0.8-12.4,4.5-13.1S210.5,112.4,211.7,119z"/>
		<path class="st9" d="M202.9,108.3c-3.7,0.7-5.7,6.5-4.5,13.1s5.1,11.3,8.8,10.6l13.8-2.5l-4.4-23.7L202.9,108.3z"/>
		<path class="st9" d="M225.4,116.4c1.2,6.6-0.8,12.4-4.5,13.1s-7.6-4.1-8.8-10.7s0.8-12.4,4.5-13.1S224.2,109.9,225.4,116.4z"/>
		<ellipse transform="matrix(0.9836 -0.1803 0.1803 0.9836 -17.632 41.39)" class="st6" cx="218.8" cy="117.7" rx="5.6" ry="10.1"/>
		<path class="st7" d="M185.4,124L185.4,124c-1.4,1.2-3.5,1-4.7-0.4l-3.5-4.1c-1.2-1.4-1-3.5,0.4-4.7l0,0c1.4-1.2,3.5-1,4.7,0.4
			l3.5,4.1C187,120.7,186.8,122.8,185.4,124z"/>
		<path class="st7" d="M188.8,121.9l0.4-0.2c1.5-0.9,3.4-0.4,4.3,1.1l2.2,3.7c0.9,1.5,0.4,3.4-1.1,4.3l-0.4,0.2
			c-1.5,0.9-3.4,0.4-4.3-1.1l-2.2-3.7C186.9,124.7,187.3,122.8,188.8,121.9z"/>
		<path class="st7" d="M188.9,131.7L188.9,131.7c-1.4,1.2-3.5,1-4.7-0.4l-3.6-4.2c-1.2-1.4-1-3.5,0.4-4.7l0,0c1.4-1.2,3.5-1,4.7,0.4
			l3.5,4.2C190.4,128.4,190.3,130.5,188.9,131.7z"/>
		<path class="st7" d="M182.9,133.2L182.9,133.2c-1.3,1.3-3.4,1.4-4.7,0.1l-4-3.8c-1.3-1.3-1.4-3.4-0.1-4.7c0,0,0,0,0,0l0,0
			c1.3-1.3,3.4-1.4,4.7-0.1c0,0,0,0,0,0l3.9,3.8C184.1,129.8,184.1,131.9,182.9,133.2z"/>
		<path class="st7" d="M73.4,82h-0.1C51.5,83.8,36,99.8,31,114.5c-2.9,8.9-4.1,18.3-3.6,27.7l5.8,0.6c2.1-42.5,29-41.6,29-41.6
			l0.2-0.4l6.8,1c0,0,14-6,14-7s26-15,26-15S87.5,80.2,73.4,82z"/>
		<path class="st8" d="M39.5,149.1c-0.2-3.3-1.7-7.2-7-8.5c-4.1-1-8.8,0.3-11.2,2.3c-1.8,1.6-3,3.8-3.2,6.2l0,0
			c-0.1,0.4-0.1,0.8-0.1,1.2l0.7,4.8c0.3,1.6,1.7,2.7,3.3,2.4c0.7-0.1,1.4-0.5,1.9-1.1v0.5c0.1,1.6,1.5,2.8,3.1,2.8
			c0.6,0,1.3-0.3,1.8-0.7l0,0c-0.1,1.5,0.9,2.8,2.4,3l0.4,0.1c1.5,0.2,2.9-0.9,3.1-2.4L35,157c1.3,0.9,3.1,0.6,4.1-0.7
			c0.4-0.5,0.6-1.1,0.6-1.7v-4.8C39.6,149.6,39.6,149.3,39.5,149.1z"/>
		<path class="st13" d="M269.5,142.2h16c-7.2-10.1-12.6-21.3-16-33.2V142.2z"/>
		<path class="st13" d="M291.6,24.8c0.9-0.8,1.8-1.5,2.8-2.2h-24.9v36.4C273.4,45.6,281.1,33.8,291.6,24.8z"/>
		<path class="st13" d="M389.7,22.5c9.6,6,18.1,13.4,25.4,22c9.2,10.8,16.3,23.3,20.7,36.8V22.5H389.7z"/>
		<path class="st14" d="M435.7,142.2v-3.1c-0.4,1-0.8,2.1-1.2,3.1H435.7z"/>
		<path class="st6" d="M327,91.6h-3.4v5.8h-5.8v-5.8h-12v-4.1l12.4-18.2h5.5V87h3.4V91.6z M317.7,87v-4.8c0-0.8,0-2,0.1-3.5
			s0.1-2.4,0.1-2.6h-0.1c-0.5,1.1-1.1,2.1-1.7,3.1L311,87H317.7z"/>
		<path class="st6" d="M348.7,83.3c0,4.9-0.8,8.6-2.4,10.9c-1.6,2.4-4.1,3.6-7.5,3.6c-2.9,0.2-5.7-1.2-7.4-3.7
			c-1.7-2.4-2.5-6.1-2.5-10.8c0-5,0.8-8.6,2.4-11c1.6-2.4,4.1-3.5,7.4-3.5c2.9-0.2,5.7,1.2,7.4,3.7C347.9,75,348.7,78.6,348.7,83.3z
			 M334.9,83.3c-0.1,2.5,0.2,5,0.9,7.4c0.4,1.3,1.6,2.3,3,2.2c1.4,0,2.6-0.9,3-2.3c0.7-2.4,1-4.9,0.9-7.4c0-3.5-0.3-5.9-0.9-7.4
			c-0.4-1.3-1.6-2.3-3-2.3c-1.4,0-2.6,0.9-3,2.3C335.1,78.3,334.8,80.8,334.9,83.3L334.9,83.3z"/>
		<path class="st6" d="M372,91.6h-3.4v5.8h-5.8v-5.8h-12v-4.1l12.4-18.2h5.5V87h3.4V91.6z M362.8,87v-4.8c0-0.8,0-2,0.1-3.5
			s0.1-2.4,0.1-2.6h-0.1c-0.5,1.1-1.1,2.1-1.7,3.1L356,87H362.8z"/>
		<path class="st6" d="M374.9,94.7c-0.1-0.9,0.2-1.8,0.9-2.4c0.7-0.6,1.6-0.9,2.5-0.8c0.9-0.1,1.8,0.2,2.5,0.8
			c1.2,1.4,1.2,3.4,0,4.8c-0.7,0.6-1.6,0.9-2.5,0.9c-0.9,0.1-1.8-0.2-2.5-0.8C375.2,96.4,374.9,95.6,374.9,94.7z"/>
		<path class="st6" d="M386.2,94.7c-0.1-0.9,0.2-1.8,0.9-2.4c0.7-0.6,1.6-0.9,2.5-0.8c0.9-0.1,1.8,0.2,2.5,0.8
			c1.2,1.4,1.2,3.4,0,4.8c-0.7,0.6-1.6,0.9-2.5,0.9c-0.9,0.1-1.8-0.2-2.5-0.8C386.4,96.4,386.1,95.6,386.2,94.7z"/>
		<path class="st6" d="M397.4,94.7c-0.1-0.9,0.2-1.8,0.9-2.4c0.7-0.6,1.6-0.9,2.5-0.8c0.9-0.1,1.8,0.2,2.5,0.8
			c1.2,1.4,1.2,3.4,0,4.8c-0.7,0.6-1.6,0.9-2.5,0.9c-0.9,0.1-1.8-0.2-2.5-0.8C397.7,96.4,397.4,95.6,397.4,94.7z"/>
		<path class="st15" d="M56.3,4.8c-3-1.1-6.1-1.7-9.2-2c-0.6-2.1-2.9-3.3-4.9-2.6c-2.1,0.6-3.3,2.9-2.6,4.9s2.9,3.3,4.9,2.6
			c1.3-0.4,2.2-1.4,2.6-2.6C50,5.4,52.9,6,55.6,7c8.1,2.7,14.5,8.8,17.7,16.7l2.1-0.9C72,14.3,65,7.7,56.3,4.8z"/>
		<path class="st4" d="M109.6,79.9c0,0.1,0,0.2,0,0.3v15.1c0,1.1,0.9,2,2,2s2-0.9,2-2V80.2c0-0.1,0-0.3,0-0.4L109.6,79.9z"/>
		<path class="st16" d="M135.3,34.1c-2-4.8-6.8-8-12-8H94.4c-3.7,0-7.3,0.9-10.5,2.6c2.8-1.1,5.8-1.7,8.8-1.7h28.9
			c5.2,0,10,3.2,12,8c2.4,5.8,3.6,12.1,3.6,18.4c0,2.5-0.1,4.8-0.3,6.8c-0.3,3.3-2.2,6.3-5.1,8c3.8-1.3,6.5-4.8,6.9-8.8
			c0.2-2.1,0.3-4.3,0.3-6.8C139,46.2,137.8,39.9,135.3,34.1z"/>
	</g>
</g>
</svg>
