<?xml version="1.0" encoding="utf-8"?>
<!-- Generator: Adobe Illustrator 24.2.1, SVG Export Plug-In . SVG Version: 6.00 Build 0)  -->
<svg version="1.1" id="Layer_1" xmlns="http://www.w3.org/2000/svg" xmlns:xlink="http://www.w3.org/1999/xlink" x="0px" y="0px"
	 viewBox="0 0 94.6 16" style="enable-background:new 0 0 94.6 16;" xml:space="preserve">
<style type="text/css">
	.st0{fill:#3F51B5;}
</style>
<g>
	<rect x="2.5" y="12.5" class="st0" width="5.4" height="1.6"/>
	<path class="st0" d="M15.3,6.6h-11c-1.2,0-2.2-1-2.2-2.2s1-2.2,2.2-2.2H17V0.8H4.2c-2,0-3.7,1.7-3.7,3.7c0,2,1.7,3.7,3.7,3.7h11
		c1.2,0,2.2,1,2.2,2.2s-1,2.2-2.2,2.2h-3.7v1.6h3.7c2,0,3.7-1.7,3.7-3.7C19,8.3,17.3,6.6,15.3,6.6z"/>
	<path class="st0" d="M16,3H3.9C3.8,3,3.7,3.1,3.7,3.2c0,0.1,0.1,0.2,0.2,0.2H16c0.1,0,0.2-0.1,0.2-0.2C16.1,3.1,16.1,3,16,3z"/>
	<path class="st0" d="M3,4.2h12.7c0.1,0,0.2-0.1,0.2-0.2c0-0.1-0.1-0.2-0.2-0.2H3C2.9,3.9,2.8,4,2.8,4C2.8,4.1,2.9,4.2,3,4.2z"/>
	<path class="st0" d="M3,5.1h12.7c0.1,0,0.2-0.1,0.2-0.2s-0.1-0.2-0.2-0.2H3c-0.1,0-0.2,0.1-0.2,0.2S2.9,5.1,3,5.1z"/>
	<path class="st0" d="M3.9,6H16c0.1,0,0.2-0.1,0.2-0.2c0-0.1-0.1-0.2-0.2-0.2H3.9c-0.1,0-0.2,0.1-0.2,0.2C3.7,5.9,3.8,6,3.9,6z"/>
	<path class="st0" d="M3.5,11.5c-0.1,0-0.2,0.1-0.2,0.2c0,0.1,0.1,0.2,0.2,0.2h4.4v-0.3H3.5z"/>
	<path class="st0" d="M15.6,11.9c0.1,0,0.2-0.1,0.2-0.2c0-0.1-0.1-0.2-0.2-0.2h-4v0.3H15.6z"/>
	<path class="st0" d="M3.7,10.6c-0.1,0-0.2,0.1-0.2,0.2c0,0.1,0.1,0.2,0.2,0.2h4.2v-0.3H3.7z"/>
	<path class="st0" d="M16.5,11c0.1,0,0.2-0.1,0.2-0.2c0-0.1-0.1-0.2-0.2-0.2h-4.9V11H16.5z"/>
	<path class="st0" d="M3.6,9.9c0,0.1,0.1,0.2,0.2,0.2h12.7c0.1,0,0.2-0.1,0.2-0.2s-0.1-0.2-0.2-0.2H3.7C3.6,9.7,3.6,9.8,3.6,9.9z"/>
	<path class="st0" d="M15.6,8.9H3.5C3.4,8.9,3.3,8.9,3.3,9c0,0.1,0.1,0.2,0.2,0.2h12.1c0.1,0,0.2-0.1,0.2-0.2
		C15.8,8.9,15.7,8.9,15.6,8.9z"/>
	<polygon class="st0" points="7.9,15.7 9.7,14.6 11.6,15.7 11.6,14.1 7.9,14.1 	"/>
	<rect x="7.9" y="11" class="st0" width="3.7" height="0.5"/>
	<polygon class="st0" points="8.6,12.4 9.4,12.3 9.6,11.9 7.9,11.9 7.9,12.5 8.7,12.5 	"/>
	<polygon class="st0" points="10.1,12.3 10.9,12.4 10.8,12.5 11.6,12.5 11.6,11.9 9.9,11.9 	"/>
	<polygon class="st0" points="10.8,12.5 10.3,13 10.4,13.8 9.7,13.4 9,13.8 9.2,13 8.7,12.5 7.9,12.5 7.9,14.1 11.6,14.1 11.6,12.5 
			"/>
	<polygon class="st0" points="9.7,11.6 9.9,11.9 11.6,11.9 11.6,11.5 7.9,11.5 7.9,11.9 9.6,11.9 	"/>
	<rect x="7.9" y="10.6" class="st0" width="3.7" height="0.3"/>
</g>
<g>
	<path class="st0" d="M25.1,3H28c1.3,0,2.3,0.2,2.9,0.6c0.6,0.4,0.9,1,0.9,1.8c0,0.6-0.1,1-0.4,1.4c-0.3,0.4-0.6,0.6-1,0.6v0.1
		c0.6,0.1,1,0.4,1.3,0.7S32,9.1,32,9.7c0,0.9-0.3,1.5-0.9,2c-0.6,0.5-1.4,0.7-2.5,0.7h-3.5V3z M27.1,6.7h1.1c0.5,0,0.9-0.1,1.2-0.3
		c0.2-0.2,0.4-0.4,0.4-0.8c0-0.4-0.1-0.6-0.4-0.8c-0.3-0.2-0.7-0.2-1.2-0.2h-1V6.7z M27.1,8.3v2.4h1.3c0.5,0,0.9-0.1,1.2-0.3
		c0.3-0.2,0.4-0.5,0.4-1c0-0.8-0.6-1.2-1.7-1.2H27.1z"/>
	<path class="st0" d="M40.1,8.8c0,1.2-0.3,2.1-0.9,2.7s-1.5,1-2.5,1c-0.7,0-1.3-0.2-1.8-0.5c-0.5-0.3-0.9-0.7-1.2-1.3
		c-0.3-0.6-0.4-1.2-0.4-2c0-1.2,0.3-2.1,0.9-2.7c0.6-0.6,1.5-1,2.6-1c0.7,0,1.3,0.1,1.8,0.4c0.5,0.3,0.9,0.7,1.2,1.3
		C40,7.4,40.1,8.1,40.1,8.8z M35.2,8.8c0,0.7,0.1,1.2,0.3,1.6c0.2,0.4,0.6,0.5,1.1,0.5c0.5,0,0.9-0.2,1.1-0.5
		c0.2-0.4,0.3-0.9,0.3-1.6c0-0.7-0.1-1.2-0.3-1.6c-0.2-0.4-0.6-0.5-1.1-0.5c-0.5,0-0.9,0.2-1.1,0.5C35.4,7.6,35.2,8.1,35.2,8.8z"/>
	<path class="st0" d="M48.2,8.8c0,1.2-0.3,2.1-0.9,2.7c-0.6,0.7-1.5,1-2.5,1c-0.7,0-1.3-0.2-1.8-0.5c-0.5-0.3-0.9-0.7-1.2-1.3
		c-0.3-0.6-0.4-1.2-0.4-2c0-1.2,0.3-2.1,0.9-2.7c0.6-0.6,1.5-1,2.6-1c0.7,0,1.3,0.1,1.8,0.4c0.5,0.3,0.9,0.7,1.2,1.3
		C48.1,7.4,48.2,8.1,48.2,8.8z M43.3,8.8c0,0.7,0.1,1.2,0.3,1.6c0.2,0.4,0.6,0.5,1.1,0.5c0.5,0,0.9-0.2,1.1-0.5
		c0.2-0.4,0.3-0.9,0.3-1.6c0-0.7-0.1-1.2-0.3-1.6c-0.2-0.4-0.6-0.5-1.1-0.5c-0.5,0-0.9,0.2-1.1,0.5C43.4,7.6,43.3,8.1,43.3,8.8z"/>
	<path class="st0" d="M51.7,8.5l0.8-1.1l2-2.2h2.2l-2.8,3.1l3,4.1h-2.2l-2-2.9l-0.8,0.7v2.2h-1.9v-10h1.9v4.5L51.7,8.5L51.7,8.5z"/>
	<path class="st0" d="M66.9,9.8c0,0.8-0.3,1.5-0.9,2c-0.6,0.5-1.4,0.7-2.5,0.7c-1,0-1.9-0.2-2.6-0.6v-1.8c0.6,0.3,1.2,0.5,1.6,0.6
		c0.4,0.1,0.8,0.2,1.2,0.2c0.4,0,0.8-0.1,1-0.3c0.2-0.2,0.3-0.4,0.3-0.7c0-0.2-0.1-0.3-0.2-0.5c-0.1-0.1-0.3-0.3-0.4-0.4
		s-0.6-0.3-1.2-0.6c-0.6-0.3-1-0.5-1.3-0.8c-0.3-0.2-0.5-0.5-0.7-0.9C61,6.4,60.9,6,60.9,5.6c0-0.8,0.3-1.5,0.8-2
		c0.6-0.5,1.3-0.7,2.3-0.7c0.5,0,0.9,0.1,1.4,0.2c0.4,0.1,0.9,0.3,1.4,0.5l-0.6,1.5c-0.5-0.2-0.9-0.3-1.2-0.4
		c-0.3-0.1-0.6-0.1-1-0.1c-0.4,0-0.7,0.1-0.9,0.3s-0.3,0.4-0.3,0.7c0,0.2,0,0.3,0.1,0.5s0.2,0.3,0.4,0.4c0.2,0.1,0.6,0.3,1.2,0.7
		c0.9,0.4,1.5,0.8,1.8,1.3C66.7,8.7,66.9,9.2,66.9,9.8z"/>
	<path class="st0" d="M71.4,11c0.3,0,0.7-0.1,1.2-0.2v1.5c-0.5,0.2-1.1,0.3-1.8,0.3c-0.8,0-1.3-0.2-1.7-0.6c-0.4-0.4-0.5-1-0.5-1.8
		V6.7h-0.9V5.9l1.1-0.7l0.6-1.5h1.2v1.5h2v1.5h-2v3.5c0,0.3,0.1,0.5,0.2,0.6C70.9,10.9,71.1,11,71.4,11z"/>
	<path class="st0" d="M80.5,8.8c0,1.2-0.3,2.1-0.9,2.7c-0.6,0.7-1.5,1-2.5,1c-0.7,0-1.3-0.2-1.8-0.5c-0.5-0.3-0.9-0.7-1.2-1.3
		c-0.3-0.6-0.4-1.2-0.4-2c0-1.2,0.3-2.1,0.9-2.7c0.6-0.6,1.5-1,2.6-1c0.7,0,1.3,0.1,1.8,0.4c0.5,0.3,0.9,0.7,1.2,1.3
		C80.4,7.4,80.5,8.1,80.5,8.8z M75.6,8.8c0,0.7,0.1,1.2,0.3,1.6c0.2,0.4,0.6,0.5,1.1,0.5c0.5,0,0.9-0.2,1.1-0.5
		c0.2-0.4,0.3-0.9,0.3-1.6c0-0.7-0.1-1.2-0.3-1.6c-0.2-0.4-0.6-0.5-1.1-0.5c-0.5,0-0.9,0.2-1.1,0.5C75.7,7.6,75.6,8.1,75.6,8.8z"/>
	<path class="st0" d="M86.1,5.1c0.3,0,0.5,0,0.7,0.1L86.6,7c-0.2,0-0.3-0.1-0.6-0.1c-0.6,0-1.1,0.2-1.4,0.5C84.2,7.7,84,8.2,84,8.8
		v3.6h-1.9V5.2h1.5l0.3,1.2h0.1c0.2-0.4,0.5-0.7,0.9-1C85.2,5.2,85.6,5.1,86.1,5.1z"/>
	<path class="st0" d="M91.2,12.5c-1.1,0-2-0.3-2.7-1c-0.6-0.6-1-1.5-1-2.7c0-1.2,0.3-2.1,0.9-2.8c0.6-0.7,1.4-1,2.5-1
		c1,0,1.8,0.3,2.3,0.9c0.6,0.6,0.8,1.4,0.8,2.4v0.9h-4.6c0,0.6,0.2,1,0.5,1.3c0.3,0.3,0.7,0.5,1.3,0.5c0.4,0,0.8,0,1.2-0.1
		c0.4-0.1,0.8-0.2,1.2-0.4V12c-0.3,0.2-0.7,0.3-1.1,0.4C92.2,12.5,91.8,12.5,91.2,12.5z M90.9,6.5c-0.4,0-0.7,0.1-1,0.4
		c-0.2,0.3-0.4,0.6-0.4,1.1h2.7c0-0.5-0.1-0.9-0.4-1.1C91.7,6.6,91.3,6.5,90.9,6.5z"/>
</g>
</svg>
